HIERARCHY
ROOT Hips
{
	OFFSET -3.958830 18.904000 13.208200
	CHANNELS 6 Xposition Yposition Zposition Zrotation Yrotation Xrotation 
	JOINT LHipJoint
	{
		OFFSET 0.000000 0.000000 0.000000
		CHANNELS 3 Zrotation Yrotation Xrotation
		JOINT LeftUpLeg
		{
			OFFSET 1.800000 -1.400000 0.085000
			CHANNELS 3 Zrotation Yrotation Xrotation
			JOINT LeftLeg
			{
				OFFSET 2.215000 -6.000000 0.000000
				CHANNELS 3 Zrotation Yrotation Xrotation
				JOINT LeftFoot
				{
					OFFSET 2.500000 -6.900000 0.000000
					CHANNELS 3 Zrotation Yrotation Xrotation
					JOINT LeftToeBase
					{
						OFFSET 0.200000 -0.500000 1.950000
						CHANNELS 3 Zrotation Yrotation Xrotation
						End Site
						{
							OFFSET 0.000000 0.000000 0.000000
						}
					}
				}
			}
		}
	}
	JOINT RHipJoint
	{
		OFFSET 0.000000 0.000000 0.000000
		CHANNELS 3 Zrotation Yrotation Xrotation
		JOINT RightUpLeg
		{
			OFFSET -1.800000 -1.400000 0.085000
			CHANNELS 3 Zrotation Yrotation Xrotation
			JOINT RightLeg
			{
				OFFSET -2.215000 -6.000000 0.000000
				CHANNELS 3 Zrotation Yrotation Xrotation
				JOINT RightFoot
				{
					OFFSET -2.500000 -6.900000 0.000000
					CHANNELS 3 Zrotation Yrotation Xrotation
					JOINT RightToeBase
					{
						OFFSET -0.200000 -0.500000 1.950000
						CHANNELS 3 Zrotation Yrotation Xrotation
						End Site
						{
							OFFSET 0.000000 0.000000 0.000000
						}
					}
				}
			}
		}
	}
	JOINT LowerBack
	{
		OFFSET 0.000000 0.000000 0.000000
		CHANNELS 3 Zrotation Yrotation Xrotation
		JOINT Spine
		{
			OFFSET -0.087000 1.940000 -0.288900
			CHANNELS 3 Zrotation Yrotation Xrotation
			JOINT Spine1
			{
				OFFSET 0.000000 1.950000 0.060000
				CHANNELS 3 Zrotation Yrotation Xrotation
				JOINT Neck
				{
					OFFSET 0.000000 0.000000 0.000000
					CHANNELS 3 Zrotation Yrotation Xrotation
					JOINT Neck1
					{
						OFFSET 0.000000 1.600000 0.340000
						CHANNELS 3 Zrotation Yrotation Xrotation
						JOINT Head
						{
							OFFSET 0.000000 1.667000 -0.240000
							CHANNELS 3 Zrotation Yrotation Xrotation
							End Site
							{
								OFFSET 0.000000 0.000000 0.000000
							}
						}
					}
				}
				JOINT LeftShoulder
				{
					OFFSET 0.000000 0.000000 0.000000
					CHANNELS 3 Zrotation Yrotation Xrotation
					JOINT LeftArm
					{
						OFFSET 2.700000 1.550000 -0.730000
						CHANNELS 3 Zrotation Yrotation Xrotation
						JOINT LeftForeArm
						{
							OFFSET 5.450000 0.000000 0.000000
							CHANNELS 3 Zrotation Yrotation Xrotation
							JOINT LeftHand
							{
								OFFSET 3.450000 0.000000 0.000000
								CHANNELS 3 Zrotation Yrotation Xrotation
								JOINT LeftHandIndex1
								{
									OFFSET 0.750000 0.000000 0.000000
									CHANNELS 3 Zrotation Yrotation Xrotation
									End Site
									{
										OFFSET 0.000000 0.000000 0.000000
									}
								}
							}
						}
					}
				}
				JOINT RightShoulder
				{
					OFFSET 0.000000 0.000000 0.000000
					CHANNELS 3 Zrotation Yrotation Xrotation
					JOINT RightArm
					{
						OFFSET -2.700000 1.550000 -0.730000
						CHANNELS 3 Zrotation Yrotation Xrotation
						JOINT RightForeArm
						{
							OFFSET -5.450000 0.000000 0.000000
							CHANNELS 3 Zrotation Yrotation Xrotation
							JOINT RightHand
							{
								OFFSET -3.450000 0.000000 0.000000
								CHANNELS 3 Zrotation Yrotation Xrotation
								JOINT RightHandIndex1
								{
									OFFSET -0.750000 0.000000 0.000000
									CHANNELS 3 Zrotation Yrotation Xrotation
									End Site
									{
										OFFSET 0.000000 0.000000 0.000000
									}
								}
							}
						}
					}
				}
			}
		}
	}
}
MOTION
Frames: 8
Frame Time: 0.016667
-0.777930 17.068400 -2.080370 1.983909 -3.645185 -0.079481 -15.008695 13.929059 2.539969 10.521180 -1.960918 -22.292704 5.273114 5.044642 27.010611 -0.466998 5.558164 2.824657 -2.645360 -2.303890 -3.121880 18.302499 -11.475397 2.364285 -7.726642 1.091954 -18.889762 -5.404627 -2.246297 15.538915 1.677980 -3.520342 3.715013 -0.517120 2.735210 -0.703030 -3.778428 -1.782464 -6.918772 7.098895 2.483954 9.760222 0.015936 4.311744 17.690904 -3.256879 4.865254 -11.250402 8.562803 13.696617 53.362098 31.484690 -7.785920 47.024900 6.223054 -16.974589 5.780454 -29.971532 -42.184495 12.490003 67.186595 -44.253067 -30.850346 -4.816035 1.773260 -0.670320 1.352040 -1.686820 0.095290 0.020926 11.468817 4.436626 20.110790 23.358080 -0.823598 -71.507990 53.479128 -34.214230 1.765173 0.002503 -1.665550 1.150400 1.666660 0.843300 
-0.781890 17.080750 -2.090160 1.934757 -4.032240 -0.307763 -15.015957 13.920826 2.561841 10.440312 -2.001361 -22.334204 4.844332 5.333989 28.025380 -0.439087 5.738105 2.757860 -2.650270 -2.289620 -3.146960 18.300752 -11.457961 2.348130 -7.728417 1.037115 -18.665112 -5.295079 -2.278278 15.492254 1.678418 -3.543629 3.711155 -0.503310 2.750570 -0.697450 -3.759492 -1.817082 -6.914587 6.844146 2.249189 9.989533 0.084223 3.987299 17.495062 -3.270816 4.789926 -10.813387 8.653421 14.169591 53.580191 31.451910 -7.089330 47.002350 5.804015 -16.677093 5.632353 -28.911948 -41.622051 12.011645 66.349760 -44.945303 -30.445102 -4.831697 1.765621 -0.686900 1.368340 -1.690300 0.101620 0.501210 11.276040 3.719138 19.721688 24.771462 -0.460554 -67.390736 54.017405 -31.601423 1.757708 -0.016265 -1.662380 1.157310 1.673490 0.854380 
-0.789300 17.106330 -2.105100 1.515890 -4.860661 -0.293363 -15.043867 13.871441 2.640538 10.483989 -2.106550 -22.798869 3.755020 6.002396 29.762379 -0.354023 6.054090 2.633933 -2.669900 -2.268310 -3.206580 18.284313 -11.393501 2.351368 -7.424850 1.033503 -18.613838 -4.843920 -2.349806 15.207850 1.684423 -3.529085 3.731999 -0.497400 2.762930 -0.690400 -3.682240 -1.858801 -6.960443 6.423744 2.332240 10.238491 0.550618 3.956181 17.489425 -3.126041 5.086954 -10.761126 9.430889 14.169022 53.331137 31.567230 -7.067390 47.107230 4.826077 -17.296332 5.756097 -28.165778 -41.295488 11.353821 67.354724 -44.702886 -30.847324 -4.857860 1.762070 -0.720330 1.385110 -1.685260 0.111030 1.244645 11.767905 3.609564 19.365837 24.810164 -0.928933 -63.914555 53.925737 -29.412529 1.774848 -0.054055 -1.637140 1.155350 1.680770 0.884320 
-0.810170 17.116670 -2.120530 1.219807 -6.003291 0.090073 -15.063730 13.711092 2.770588 10.663257 -2.298541 -23.505626 1.449103 7.219666 31.525063 -0.265121 6.530237 2.467440 -2.462400 -2.116360 -3.048910 18.292613 -11.295772 2.339724 -7.548184 1.081018 -18.815163 -4.058833 -2.413024 14.559122 1.627175 -3.479179 3.731675 -0.428460 2.687040 -0.612140 -3.655989 -1.824007 -6.988484 5.296107 2.302897 10.558360 0.991471 3.633765 16.782131 -3.845759 4.460990 -9.314442 7.872173 13.413259 52.784116 31.105190 -8.453810 43.664100 4.974765 -14.080779 4.961997 -30.743094 -42.180511 13.813860 67.467733 -45.578704 -31.277987 -4.794183 1.863906 -0.720760 1.344070 -1.656490 0.154660 2.666596 9.537869 1.679073 20.597786 27.963889 0.965551 -55.937315 54.104660 -24.625509 1.795092 -0.243461 -1.535270 1.098840 1.588210 0.861920 
-0.823260 17.124450 -2.129370 0.667769 -6.864578 0.600579 -15.073145 13.495672 2.936176 11.097103 -2.466039 -24.049001 -1.783677 8.732777 32.325659 -0.179540 6.951317 2.313377 -2.140680 -1.858820 -2.756010 18.310606 -11.196569 2.328241 -7.839046 1.130359 -19.136937 -2.801850 -2.568485 14.067491 1.523536 -3.412070 3.716598 -0.319570 2.522700 -0.536380 -3.668181 -1.714079 -7.043931 4.514034 2.303487 10.920063 1.436786 3.269103 16.138169 -4.510459 3.953416 -7.967939 6.634095 12.650284 52.529187 30.904660 -9.174280 39.305190 6.006606 -9.961853 4.258281 -35.249811 -43.221631 17.104511 66.136870 -47.442158 -31.488726 -4.657475 1.974133 -0.689930 1.257500 -1.589700 0.184920 3.078182 6.262219 -0.313311 24.259600 30.923774 3.556875 -47.352761 54.107667 -20.035526 1.808149 -0.475196 -1.394950 1.014150 1.425970 0.794590 
-0.836420 17.149710 -2.145590 0.012438 -7.883333 0.828291 -15.074156 13.267624 3.093449 11.614355 -2.572628 -23.914317 -5.625411 10.294068 32.056454 -0.099851 7.346230 2.172992 -1.826300 -1.608870 -2.448090 18.334398 -11.097093 2.319968 -8.175293 1.134247 -19.106474 -1.394096 -2.767170 13.299454 1.399561 -3.375752 3.684078 -0.213630 2.350790 -0.444810 -3.702070 -1.586905 -7.102201 3.973711 2.256654 11.324862 1.203019 2.733278 16.173097 -4.946372 3.805117 -7.003498 6.138458 11.663260 52.281948 29.924460 -8.789970 34.969990 6.537610 -8.162295 3.228426 -35.854931 -44.408455 18.115401 63.477352 -45.473146 -28.954526 -4.590191 2.169850 -0.645710 1.179820 -1.500190 0.213660 3.492539 4.873499 -1.133189 28.692270 34.488972 6.607361 -42.052429 49.548597 -16.515505 1.851464 -0.700281 -1.260450 0.929810 1.263780 0.719000 
-0.843880 17.142100 -2.146720 -0.953960 -8.245158 1.263427 -15.058868 12.958880 3.284866 12.402605 -2.657630 -23.721348 -10.162496 11.869864 30.792064 -0.011710 7.726961 2.040561 -1.564860 -1.398200 -2.183520 18.377130 -10.997534 2.316551 -8.846465 1.080313 -18.914905 0.578501 -3.100743 12.313703 1.277059 -3.382578 3.631949 -0.125880 2.189540 -0.379330 -3.803813 -1.340003 -7.198679 4.360626 2.376578 11.722271 0.975269 2.484643 15.899088 -5.142987 3.788903 -6.026095 5.644492 9.841603 51.230058 28.521710 -9.273600 30.326980 6.945537 -7.234309 1.789025 -34.023535 -45.694475 18.478065 59.827793 -44.820039 -26.288175 -4.515835 2.298222 -0.607210 1.099840 -1.418890 0.227910 3.555156 4.178879 -1.511094 29.624720 35.893941 8.081288 -37.567782 46.660917 -13.862803 1.881144 -0.854496 -1.144460 0.872200 1.135050 0.652120 
-0.850150 17.102710 -2.144570 -1.550092 -8.304169 1.452363 -15.075862 12.706628 3.515464 12.586967 -2.927613 -23.435387 -14.681400 13.101464 29.118761 0.064447 8.033729 1.933753 -1.219010 -1.121110 -1.809060 18.381374 -10.914069 2.258268 -9.578019 1.097014 -19.260977 1.586095 -3.345754 12.891523 1.110746 -3.385330 3.550834 -0.010170 1.955770 -0.282540 -3.795810 -1.212401 -7.291599 3.730330 2.551562 12.338937 1.524231 2.131562 15.939420 -5.613778 3.900391 -5.216205 5.144066 7.068188 50.065018 25.667510 -9.357140 24.395390 9.508693 -5.756800 0.027903 -32.232559 -47.489561 19.276486 56.160689 -43.623290 -23.717719 -4.420775 2.465729 -0.540020 0.999100 -1.288740 0.237750 2.090957 2.989167 -1.489837 32.237857 37.164729 9.788638 -34.885174 43.648209 -12.416944 1.873912 -1.019865 -0.993750 0.791520 0.961780 0.546360 
